<svg width="30" height="20" viewBox="0 0 30 20" fill="none" xmlns="http://www.w3.org/2000/svg">
<g clip-path="url(#clip0_211_1022)">
<path d="M27.5 0H2.5C1.11929 0 0 1.11929 0 2.5V17.5C0 18.8807 1.11929 20 2.5 20H27.5C28.8807 20 30 18.8807 30 17.5V2.5C30 1.11929 28.8807 0 27.5 0Z" fill="#016FD0"/>
<path fill-rule="evenodd" clip-rule="evenodd" d="M17.2051 16.7422V9.61548L29.8895 9.62686V11.5955L28.4234 13.1622L29.8895 14.7433V16.7537H27.5487L26.3047 15.381L25.0696 16.7589L17.2051 16.7422Z" fill="#FFFFFE"/>
<path fill-rule="evenodd" clip-rule="evenodd" d="M18.0522 15.961V10.3999H22.7676V11.681H19.579V12.5506H22.6916V13.8104H19.579V14.6645H22.7676V15.961H18.0522Z" fill="#016FD0"/>
<path fill-rule="evenodd" clip-rule="evenodd" d="M22.7441 15.9611L25.3533 13.1774L22.744 10.4001H24.7636L26.3579 12.1627L27.9568 10.4001H29.8895V10.4439L27.336 13.1774L29.8895 15.8822V15.9611H27.9374L26.3147 14.1809L24.7088 15.9611H22.7441Z" fill="#016FD0"/>
<path fill-rule="evenodd" clip-rule="evenodd" d="M17.7967 3.28979H20.8543L21.9282 5.72836V3.28979H25.703L26.3539 5.11676L27.0071 3.28979H29.8895V10.4165H14.6564L17.7967 3.28979Z" fill="#FFFFFE"/>
<path fill-rule="evenodd" clip-rule="evenodd" d="M18.3756 4.06445L15.9081 9.62092H17.6005L18.066 8.50821H20.5884L21.0536 9.62092H22.7881L20.3308 4.06445H18.3756ZM18.5876 7.26125L19.3276 5.49241L20.0671 7.26125H18.5876Z" fill="#016FD0"/>
<path fill-rule="evenodd" clip-rule="evenodd" d="M22.7649 9.61983V4.06348L25.1438 4.07165L26.3679 7.48757L27.5999 4.06348H29.8894V9.61983L28.4162 9.63287V5.81618L27.0254 9.61983H25.6807L24.2611 5.80315V9.61983H22.7649Z" fill="#016FD0"/>
</g>
<defs>
<clipPath id="clip0_211_1022">
<rect width="30" height="20" fill="white"/>
</clipPath>
</defs>
</svg>
