<svg width="30" height="20" viewBox="0 0 30 20" fill="none" xmlns="http://www.w3.org/2000/svg">
<g clip-path="url(#clip0_211_1032)">
<path d="M27.4966 19.6874L27.4992 19.6874C28.6931 19.6976 29.6726 18.7216 29.6875 17.5052L29.6875 2.50788C29.6827 1.91961 29.4486 1.35771 29.0372 0.946002C28.6268 0.535336 28.0737 0.307686 27.4966 0.312589L2.5008 0.312577C1.92637 0.307686 1.37322 0.535336 0.962848 0.946002C0.551431 1.35771 0.317298 1.91961 0.31251 2.50533L0.3125 17.4921C0.317298 18.0804 0.551431 18.6423 0.962848 19.054C1.37322 19.4647 1.92637 19.6923 2.50346 19.6874H27.4966ZM27.4953 20.3124C27.4948 20.3124 27.4943 20.3124 27.4939 20.3124L27.4966 20.3124H27.4953Z" fill="white" stroke="black" stroke-opacity="0.2" stroke-width="0.625"/>
<path d="M15.7655 19.9999H27.4965C28.155 20.0055 28.7887 19.7491 29.2582 19.2874C29.7277 18.8257 29.9945 18.1964 30 17.5379V14.5896C25.5702 17.1325 20.766 18.9585 15.7655 19.9999Z" fill="#F27712"/>
<path d="M28.9656 11.6204H27.9001L26.7001 10.0377H26.5863V11.6204H25.7173V7.68939H27.0001C28.0035 7.68939 28.5828 8.10318 28.5828 8.84801C28.5828 9.45835 28.2208 9.85145 27.569 9.97559L28.9656 11.6204ZM27.6828 8.87904C27.6828 8.49628 27.3932 8.29973 26.8552 8.29973H26.5863V9.48939H26.8345C27.3932 9.48939 27.6828 9.28249 27.6828 8.87904ZM22.6759 7.68939H25.138V8.35145H23.5449V9.23077H25.0759V9.90318H23.5449V10.9687H25.138V11.6308H22.6759V7.68939ZM19.8828 11.7239L18.0001 7.67904H18.9518L20.1414 10.3273L21.3414 7.67904H22.2725L20.369 11.7239H19.9035H19.8828ZM12.0104 11.7135C10.6863 11.7135 9.65179 10.8135 9.65179 9.64456C9.65179 8.50663 10.707 7.58594 12.0311 7.58594C12.4035 7.58594 12.7139 7.65835 13.0966 7.82387V8.73421C12.8068 8.44944 12.4168 8.28972 12.0104 8.28939C11.1828 8.28939 10.5518 8.88939 10.5518 9.64456C10.5518 10.4411 11.1725 11.0101 12.0518 11.0101C12.4449 11.0101 12.7449 10.8859 13.0966 10.5756V11.4859C12.7035 11.6515 12.3725 11.7135 12.0104 11.7135ZM9.38282 10.4204C9.38282 11.1859 8.75179 11.7135 7.84144 11.7135C7.17937 11.7135 6.70351 11.4859 6.30006 10.9687L6.86903 10.4825C7.06558 10.8342 7.39661 11.0101 7.81041 11.0101C8.20351 11.0101 8.48282 10.7721 8.48282 10.4618C8.48282 10.2859 8.40006 10.1515 8.2242 10.048C8.03137 9.95444 7.83058 9.87827 7.6242 9.82042C6.80696 9.5618 6.52765 9.28249 6.52765 8.73421C6.52765 8.09283 7.12765 7.60663 7.91386 7.60663C8.41041 7.60663 8.85524 7.7618 9.22765 8.05145L8.77248 8.5687C8.59207 8.37092 8.33672 8.25827 8.06903 8.25835C7.69662 8.25835 7.42765 8.44456 7.42765 8.69283C7.42765 8.89973 7.58282 9.01352 8.10006 9.18939C9.09317 9.49973 9.38282 9.78939 9.38282 10.4308V10.4204ZM5.11041 7.68939H5.97937V11.6308H5.11041V7.68939ZM2.3173 11.6308H1.03455V7.68939H2.3173C3.7242 7.68939 4.69661 8.49628 4.69661 9.6549C4.69661 10.2446 4.40696 10.8032 3.90006 11.1756C3.46558 11.4859 2.97937 11.6308 2.30696 11.6308H2.3173ZM3.3311 8.67214C3.04144 8.44456 2.71041 8.3618 2.14144 8.3618H1.90351V10.9687H2.14144C2.70006 10.9687 3.05179 10.8652 3.3311 10.6584C3.6311 10.4101 3.80696 10.0377 3.80696 9.6549C3.80696 9.27214 3.6311 8.91008 3.3311 8.67214Z" fill="black"/>
<path d="M15.5173 7.58594C14.3794 7.58594 13.4484 8.49628 13.4484 9.62387C13.4484 10.8239 14.338 11.7239 15.5173 11.7239C16.676 11.7239 17.5863 10.8135 17.5863 9.6549C17.5863 8.49628 16.6863 7.58594 15.5173 7.58594Z" fill="#F27712"/>
</g>
<defs>
<clipPath id="clip0_211_1032">
<rect width="30" height="20" fill="white"/>
</clipPath>
</defs>
</svg>
