<svg width="30" height="20" viewBox="0 0 30 20" fill="none" xmlns="http://www.w3.org/2000/svg">
<g clip-path="url(#clip0_211_1016)">
<path d="M27.5 0H2.5C1.11929 0 0 1.11929 0 2.5V17.5C0 18.8807 1.11929 20 2.5 20H27.5C28.8807 20 30 18.8807 30 17.5V2.5C30 1.11929 28.8807 0 27.5 0Z" fill="#252525"/>
<path d="M11.25 16.25C14.7018 16.25 17.5 13.4518 17.5 10C17.5 6.54822 14.7018 3.75 11.25 3.75C7.79822 3.75 5 6.54822 5 10C5 13.4518 7.79822 16.25 11.25 16.25Z" fill="#EB001B"/>
<path d="M18.75 16.25C22.2018 16.25 25 13.4518 25 10C25 6.54822 22.2018 3.75 18.75 3.75C15.2982 3.75 12.5 6.54822 12.5 10C12.5 13.4518 15.2982 16.25 18.75 16.25Z" fill="#F79E1B"/>
<path fill-rule="evenodd" clip-rule="evenodd" d="M15 4.99951C16.5181 6.13977 17.5 7.9552 17.5 9.99997C17.5 12.0447 16.5181 13.8602 15 15.0004C13.4819 13.8602 12.5 12.0447 12.5 9.99997C12.5 7.9552 13.4819 6.13977 15 4.99951Z" fill="#FF5F00"/>
</g>
<defs>
<clipPath id="clip0_211_1016">
<rect width="30" height="20" fill="white"/>
</clipPath>
</defs>
</svg>
