<svg width="30" height="20" viewBox="0 0 30 20" fill="none" xmlns="http://www.w3.org/2000/svg">
<g clip-path="url(#clip0_211_1008)">
<path d="M27.1875 0.3125H2.8125C1.43179 0.3125 0.3125 1.43179 0.3125 2.8125V17.1875C0.3125 18.5682 1.43179 19.6875 2.8125 19.6875H27.1875C28.5682 19.6875 29.6875 18.5682 29.6875 17.1875V2.8125C29.6875 1.43179 28.5682 0.3125 27.1875 0.3125Z" fill="white" stroke="black" stroke-opacity="0.2" stroke-width="0.625"/>
<path d="M3.48467 7.39305C2.83074 7.03438 2.08442 6.74592 1.25 6.54574L1.285 6.38985H4.70622C5.16995 6.40611 5.54624 6.54563 5.66868 7.03839L6.41221 10.5832L6.63998 11.6509L8.72246 6.38985H10.971L7.6286 14.0969H5.37996L3.48467 7.39305ZM12.625 14.1051H10.4985L11.8286 6.38985H13.9549L12.625 14.1051ZM20.3335 6.57847L20.0443 8.24448L19.852 8.16256C19.4672 8.00656 18.9593 7.85067 18.268 7.86714C17.4284 7.86714 17.0519 8.20346 17.0432 8.53182C17.0432 8.89302 17.4987 9.13105 18.2424 9.48406C19.4675 10.034 20.0358 10.707 20.0273 11.5852C20.0101 13.1858 18.5575 14.2201 16.3263 14.2201C15.3723 14.2118 14.4535 14.0226 13.9548 13.8095L14.2523 12.0776L14.5323 12.2008C15.2236 12.4884 15.6785 12.6112 16.5275 12.6112C17.1397 12.6112 17.7961 12.373 17.8045 11.8561C17.8045 11.5196 17.5248 11.2731 16.7021 10.8956C15.8972 10.5261 14.8211 9.9106 14.8385 8.80247C14.8476 7.30053 16.3263 6.25 18.4262 6.25C19.2488 6.25 19.9141 6.42236 20.3335 6.57847ZM23.1597 11.3719H24.9272C24.8397 10.9861 24.437 9.13934 24.437 9.13934L24.2884 8.47455C24.1834 8.76178 23.9998 9.22967 24.0087 9.2132C24.0087 9.2132 23.3348 10.9286 23.1597 11.3719ZM25.7845 6.38985L27.5 14.105H25.5311C25.5311 14.105 25.3384 13.2185 25.2774 12.9477H22.5472C22.4683 13.1527 22.101 14.105 22.101 14.105H19.8697L23.0283 7.02999C23.2471 6.52927 23.6325 6.38985 24.1397 6.38985H25.7845Z" fill="#171E6C"/>
</g>
<defs>
<clipPath id="clip0_211_1008">
<rect width="30" height="20" fill="white"/>
</clipPath>
</defs>
</svg>
