<svg width="24" height="24" viewBox="0 0 24 24" fill="none" xmlns="http://www.w3.org/2000/svg">
<path d="M19.0005 8.424V7C19.0005 5.14348 18.263 3.36301 16.9502 2.05025C15.6375 0.737498 13.857 0 12.0005 0C10.144 0 8.3635 0.737498 7.05074 2.05025C5.73799 3.36301 5.00049 5.14348 5.00049 7V8.424C4.10985 8.81271 3.35178 9.45252 2.81899 10.2652C2.28619 11.0779 2.00177 12.0282 2.00049 13V19C2.00208 20.3256 2.52937 21.5964 3.46671 22.5338C4.40405 23.4711 5.67489 23.9984 7.00049 24H17.0005C18.3261 23.9984 19.5969 23.4711 20.5343 22.5338C21.4716 21.5964 21.9989 20.3256 22.0005 19V13C21.9992 12.0282 21.7148 11.0779 21.182 10.2652C20.6492 9.45252 19.8911 8.81271 19.0005 8.424ZM7.00049 7C7.00049 5.67392 7.52727 4.40215 8.46495 3.46447C9.40264 2.52678 10.6744 2 12.0005 2C13.3266 2 14.5983 2.52678 15.536 3.46447C16.4737 4.40215 17.0005 5.67392 17.0005 7V8H7.00049V7ZM20.0005 19C20.0005 19.7956 19.6844 20.5587 19.1218 21.1213C18.5592 21.6839 17.7961 22 17.0005 22H7.00049C6.20484 22 5.44178 21.6839 4.87917 21.1213C4.31656 20.5587 4.00049 19.7956 4.00049 19V13C4.00049 12.2044 4.31656 11.4413 4.87917 10.8787C5.44178 10.3161 6.20484 10 7.00049 10H17.0005C17.7961 10 18.5592 10.3161 19.1218 10.8787C19.6844 11.4413 20.0005 12.2044 20.0005 13V19Z" fill="#8692A6"/>
<path d="M12.0005 14C11.7353 14 11.4809 14.1054 11.2934 14.2929C11.1058 14.4804 11.0005 14.7348 11.0005 15V17C11.0005 17.2652 11.1058 17.5196 11.2934 17.7071C11.4809 17.8946 11.7353 18 12.0005 18C12.2657 18 12.5201 17.8946 12.7076 17.7071C12.8951 17.5196 13.0005 17.2652 13.0005 17V15C13.0005 14.7348 12.8951 14.4804 12.7076 14.2929C12.5201 14.1054 12.2657 14 12.0005 14Z" fill="#8692A6"/>
</svg>
