<svg width="125" height="26" viewBox="0 0 125 26" fill="none" xmlns="http://www.w3.org/2000/svg">
<path d="M117.082 25.632L111.934 17.892L107.398 25.632H100.414L108.514 12.78L100.234 0.359985H107.398L112.474 7.99199L116.938 0.359985H123.922L115.894 13.104L124.246 25.632H117.082Z" fill="#072BF2"/>
<path d="M85.2528 25.884C82.8768 25.884 80.6928 25.332 78.7008 24.228C76.7328 23.124 75.1608 21.588 73.9848 19.62C72.8328 17.628 72.2568 15.396 72.2568 12.924C72.2568 10.452 72.8328 8.232 73.9848 6.264C75.1608 4.296 76.7328 2.76 78.7008 1.656C80.6928 0.552 82.8768 0 85.2528 0C87.6288 0 89.8008 0.552 91.7688 1.656C93.7608 2.76 95.3208 4.296 96.4488 6.264C97.6008 8.232 98.1768 10.452 98.1768 12.924C98.1768 15.396 97.6008 17.628 96.4488 19.62C95.2968 21.588 93.7368 23.124 91.7688 24.228C89.8008 25.332 87.6288 25.884 85.2528 25.884ZM85.2528 20.268C87.2688 20.268 88.8768 19.596 90.0768 18.252C91.3008 16.908 91.9128 15.132 91.9128 12.924C91.9128 10.692 91.3008 8.916 90.0768 7.596C88.8768 6.252 87.2688 5.58 85.2528 5.58C83.2128 5.58 81.5808 6.24 80.3568 7.56C79.1568 8.88 78.5568 10.668 78.5568 12.924C78.5568 15.156 79.1568 16.944 80.3568 18.288C81.5808 19.608 83.2128 20.268 85.2528 20.268Z" fill="#072BF2"/>
<path d="M70.2113 10.632V15.564H63.5153V25.404H57.3593V15.564H50.6633V10.632H70.2113Z" fill="#072BF2"/>
<path d="M50.6632 15.404L50.6632 10.472L57.3592 10.472L57.3592 0.631987L63.5152 0.631988L63.5152 10.472L70.2112 10.472L70.2112 15.404L50.6632 15.404Z" fill="#072BF2"/>
<path d="M35.6825 25.884C33.3065 25.884 31.1225 25.332 29.1305 24.228C27.1625 23.124 25.5905 21.588 24.4145 19.62C23.2625 17.628 22.6865 15.396 22.6865 12.924C22.6865 10.452 23.2625 8.232 24.4145 6.264C25.5905 4.296 27.1625 2.76 29.1305 1.656C31.1225 0.552 33.3065 0 35.6825 0C38.0585 0 40.2305 0.552 42.1985 1.656C44.1905 2.76 45.7505 4.296 46.8785 6.264C48.0305 8.232 48.6065 10.452 48.6065 12.924C48.6065 15.396 48.0305 17.628 46.8785 19.62C45.7265 21.588 44.1665 23.124 42.1985 24.228C40.2305 25.332 38.0585 25.884 35.6825 25.884ZM35.6825 20.268C37.6985 20.268 39.3065 19.596 40.5065 18.252C41.7305 16.908 42.3425 15.132 42.3425 12.924C42.3425 10.692 41.7305 8.916 40.5065 7.596C39.3065 6.252 37.6985 5.58 35.6825 5.58C33.6425 5.58 32.0105 6.24 30.7865 7.56C29.5865 8.88 28.9865 10.668 28.9865 12.924C28.9865 15.156 29.5865 16.944 30.7865 18.288C32.0105 19.608 33.6425 20.268 35.6825 20.268Z" fill="#072BF2"/>
<path d="M15.3 12.672C16.764 12.984 17.94 13.716 18.828 14.868C19.716 15.996 20.16 17.292 20.16 18.756C20.16 20.868 19.416 22.548 17.928 23.796C16.464 25.02 14.412 25.632 11.772 25.632H0V0.359985H11.376C13.944 0.359985 15.948 0.947985 17.388 2.12398C18.852 3.29998 19.584 4.89599 19.584 6.91199C19.584 8.39999 19.188 9.63599 18.396 10.62C17.628 11.604 16.596 12.288 15.3 12.672ZM6.156 10.584H10.188C11.196 10.584 11.964 10.368 12.492 9.93599C13.044 9.47999 13.32 8.81999 13.32 7.95599C13.32 7.09199 13.044 6.43199 12.492 5.97599C11.964 5.51999 11.196 5.29199 10.188 5.29199H6.156V10.584ZM10.692 20.664C11.724 20.664 12.516 20.436 13.068 19.98C13.644 19.5 13.932 18.816 13.932 17.928C13.932 17.04 13.632 16.344 13.032 15.84C12.456 15.336 11.652 15.084 10.62 15.084H6.156V20.664H10.692Z" fill="#072BF2"/>
</svg>
