<svg width="125" height="27" viewBox="0 0 125 27" fill="none" xmlns="http://www.w3.org/2000/svg">
<path d="M117.082 26L111.934 18.26L107.398 26H100.414L108.514 13.148L100.234 0.727966H107.398L112.474 8.35997L116.938 0.727966H123.922L115.894 13.472L124.246 26H117.082Z" fill="white"/>
<path d="M85.2528 26.252C82.8768 26.252 80.6928 25.7 78.7008 24.596C76.7328 23.492 75.1608 21.956 73.9848 19.988C72.8328 17.996 72.2568 15.764 72.2568 13.292C72.2568 10.82 72.8328 8.59998 73.9848 6.63198C75.1608 4.66398 76.7328 3.12798 78.7008 2.02398C80.6928 0.919981 82.8768 0.367981 85.2528 0.367981C87.6288 0.367981 89.8008 0.919981 91.7688 2.02398C93.7608 3.12798 95.3208 4.66398 96.4488 6.63198C97.6008 8.59998 98.1768 10.82 98.1768 13.292C98.1768 15.764 97.6008 17.996 96.4488 19.988C95.2968 21.956 93.7368 23.492 91.7688 24.596C89.8008 25.7 87.6288 26.252 85.2528 26.252ZM85.2528 20.636C87.2688 20.636 88.8768 19.964 90.0768 18.62C91.3008 17.276 91.9128 15.5 91.9128 13.292C91.9128 11.06 91.3008 9.28398 90.0768 7.96398C88.8768 6.61998 87.2688 5.94798 85.2528 5.94798C83.2128 5.94798 81.5808 6.60798 80.3568 7.92798C79.1568 9.24798 78.5568 11.036 78.5568 13.292C78.5568 15.524 79.1568 17.312 80.3568 18.656C81.5808 19.976 83.2128 20.636 85.2528 20.636Z" fill="white"/>
<path d="M70.2112 11V15.932H63.5152V25.772H57.3592V15.932H50.6632V11H70.2112Z" fill="white"/>
<path d="M50.6633 15.772L50.6633 10.84L57.3593 10.84L57.3593 0.999968L63.5153 0.999969L63.5153 10.84L70.2113 10.84L70.2113 15.772L50.6633 15.772Z" fill="white"/>
<path d="M35.6825 26.252C33.3065 26.252 31.1225 25.7 29.1305 24.596C27.1625 23.492 25.5905 21.956 24.4145 19.988C23.2625 17.996 22.6865 15.764 22.6865 13.292C22.6865 10.82 23.2625 8.59998 24.4145 6.63198C25.5905 4.66398 27.1625 3.12798 29.1305 2.02398C31.1225 0.919981 33.3065 0.367981 35.6825 0.367981C38.0585 0.367981 40.2305 0.919981 42.1985 2.02398C44.1905 3.12798 45.7505 4.66398 46.8785 6.63198C48.0305 8.59998 48.6065 10.82 48.6065 13.292C48.6065 15.764 48.0305 17.996 46.8785 19.988C45.7265 21.956 44.1665 23.492 42.1985 24.596C40.2305 25.7 38.0585 26.252 35.6825 26.252ZM35.6825 20.636C37.6985 20.636 39.3065 19.964 40.5065 18.62C41.7305 17.276 42.3425 15.5 42.3425 13.292C42.3425 11.06 41.7305 9.28398 40.5065 7.96398C39.3065 6.61998 37.6985 5.94798 35.6825 5.94798C33.6425 5.94798 32.0105 6.60798 30.7865 7.92798C29.5865 9.24798 28.9865 11.036 28.9865 13.292C28.9865 15.524 29.5865 17.312 30.7865 18.656C32.0105 19.976 33.6425 20.636 35.6825 20.636Z" fill="white"/>
<path d="M15.3 13.04C16.764 13.352 17.94 14.084 18.828 15.236C19.716 16.364 20.16 17.66 20.16 19.124C20.16 21.236 19.416 22.916 17.928 24.164C16.464 25.388 14.412 26 11.772 26H0V0.727966H11.376C13.944 0.727966 15.948 1.31597 17.388 2.49197C18.852 3.66797 19.584 5.26397 19.584 7.27997C19.584 8.76797 19.188 10.004 18.396 10.988C17.628 11.972 16.596 12.656 15.3 13.04ZM6.156 10.952H10.188C11.196 10.952 11.964 10.736 12.492 10.304C13.044 9.84797 13.32 9.18797 13.32 8.32397C13.32 7.45997 13.044 6.79997 12.492 6.34397C11.964 5.88797 11.196 5.65997 10.188 5.65997H6.156V10.952ZM10.692 21.032C11.724 21.032 12.516 20.804 13.068 20.348C13.644 19.868 13.932 19.184 13.932 18.296C13.932 17.408 13.632 16.712 13.032 16.208C12.456 15.704 11.652 15.452 10.62 15.452H6.156V21.032H10.692Z" fill="white"/>
</svg>
