<svg width="40" height="40" viewBox="0 0 40 40" fill="none" xmlns="http://www.w3.org/2000/svg">
<g clip-path="url(#clip0_271_821)">
<path d="M28.3333 5.00008H34.9999C35.4419 5.00008 35.8659 5.17568 36.1784 5.48824C36.491 5.8008 36.6666 6.22472 36.6666 6.66675V33.3334C36.6666 33.7754 36.491 34.1994 36.1784 34.5119C35.8659 34.8245 35.4419 35.0001 34.9999 35.0001H4.99992C4.55789 35.0001 4.13397 34.8245 3.82141 34.5119C3.50885 34.1994 3.33325 33.7754 3.33325 33.3334V6.66675C3.33325 6.22472 3.50885 5.8008 3.82141 5.48824C4.13397 5.17568 4.55789 5.00008 4.99992 5.00008H11.6666V1.66675H14.9999V5.00008H24.9999V1.66675H28.3333V5.00008ZM33.3333 18.3334H6.66659V31.6667H33.3333V18.3334ZM24.9999 8.33341H14.9999V11.6667H11.6666V8.33341H6.66659V15.0001H33.3333V8.33341H28.3333V11.6667H24.9999V8.33341ZM9.99992 21.6667H13.3333V25.0001H9.99992V21.6667ZM18.3333 21.6667H21.6666V25.0001H18.3333V21.6667ZM26.6666 21.6667H29.9999V25.0001H26.6666V21.6667Z" fill="#09121F"/>
</g>
<defs>
<clipPath id="clip0_271_821">
<rect width="40" height="40" fill="white"/>
</clipPath>
</defs>
</svg>
