<svg width="40" height="40" viewBox="0 0 40 40" fill="none" xmlns="http://www.w3.org/2000/svg">
<g clip-path="url(#clip0_271_783)">
<path d="M19.9999 36.6666C10.7949 36.6666 3.33325 29.2049 3.33325 19.9999C3.33325 10.7949 10.7949 3.33325 19.9999 3.33325C29.2049 3.33325 36.6666 10.7949 36.6666 19.9999C36.6666 29.2049 29.2049 36.6666 19.9999 36.6666ZM19.9999 33.3333C23.5361 33.3333 26.9275 31.9285 29.428 29.428C31.9285 26.9275 33.3333 23.5361 33.3333 19.9999C33.3333 16.4637 31.9285 13.0723 29.428 10.5718C26.9275 8.07134 23.5361 6.66659 19.9999 6.66659C16.4637 6.66659 13.0723 8.07134 10.5718 10.5718C8.07134 13.0723 6.66659 16.4637 6.66659 19.9999C6.66659 23.5361 8.07134 26.9275 10.5718 29.428C13.0723 31.9285 16.4637 33.3333 19.9999 33.3333ZM21.6666 19.9999H28.3333V23.3333H18.3333V11.6666H21.6666V19.9999Z" fill="black"/>
</g>
<defs>
<clipPath id="clip0_271_783">
<rect width="40" height="40" fill="white"/>
</clipPath>
</defs>
</svg>
