<svg width="24" height="24" viewBox="0 0 24 24" fill="none" xmlns="http://www.w3.org/2000/svg">
<g clip-path="url(#clip0_574_1864)">
<path d="M2.21301 14.0598C1.92542 12.7015 1.92542 11.298 2.21301 9.93976C3.32301 10.0698 4.29301 9.70276 4.60901 8.93876C4.92601 8.17376 4.50101 7.22876 3.62301 6.53576C4.38005 5.37209 5.37233 4.3798 6.53601 3.62276C7.22801 4.49976 8.17401 4.92576 8.93901 4.60876C9.70401 4.29176 10.071 3.32276 9.94001 2.21276C11.2983 1.92517 12.7017 1.92517 14.06 2.21276C13.93 3.32276 14.297 4.29276 15.061 4.60876C15.826 4.92576 16.771 4.50076 17.464 3.62276C18.6277 4.3798 19.62 5.37209 20.377 6.53576C19.5 7.22776 19.074 8.17376 19.391 8.93876C19.708 9.70376 20.677 10.0708 21.787 9.93976C22.0746 11.298 22.0746 12.7015 21.787 14.0598C20.677 13.9298 19.707 14.2968 19.391 15.0608C19.074 15.8258 19.499 16.7708 20.377 17.4638C19.62 18.6274 18.6277 19.6197 17.464 20.3768C16.772 19.4998 15.826 19.0738 15.061 19.3908C14.296 19.7078 13.929 20.6768 14.06 21.7868C12.7017 22.0744 11.2983 22.0744 9.94001 21.7868C10.07 20.6768 9.70301 19.7068 8.93901 19.3908C8.17401 19.0738 7.22901 19.4988 6.53601 20.3768C5.37233 19.6197 4.38005 18.6274 3.62301 17.4638C4.50001 16.7718 4.92601 15.8258 4.60901 15.0608C4.29201 14.2958 3.32301 13.9288 2.21301 14.0598ZM4.00001 12.2098C5.10001 12.5148 6.00701 13.2118 6.45701 14.2958C6.90601 15.3808 6.75701 16.5158 6.19501 17.5078C6.29101 17.6098 6.39001 17.7088 6.49201 17.8048C7.48501 17.2428 8.61901 17.0948 9.70401 17.5428C10.788 17.9928 11.485 18.8998 11.79 19.9998C11.93 20.0038 12.07 20.0038 12.21 19.9998C12.515 18.8998 13.212 17.9928 14.296 17.5428C15.381 17.0938 16.516 17.2428 17.508 17.8048C17.61 17.7088 17.709 17.6098 17.805 17.5078C17.243 16.5148 17.095 15.3808 17.543 14.2958C17.993 13.2118 18.9 12.5148 20 12.2098C20.004 12.0698 20.004 11.9298 20 11.7898C18.9 11.4848 17.993 10.7878 17.543 9.70376C17.094 8.61876 17.243 7.48376 17.805 6.49176C17.7086 6.39016 17.6096 6.29112 17.508 6.19476C16.515 6.75676 15.381 6.90476 14.296 6.45676C13.212 6.00676 12.515 5.09976 12.21 3.99976C12.07 3.99606 11.93 3.99606 11.79 3.99976C11.485 5.09976 10.788 6.00676 9.70401 6.45676C8.61901 6.90576 7.48401 6.75676 6.49201 6.19476C6.39001 6.29076 6.29101 6.38976 6.19501 6.49176C6.75701 7.48476 6.90501 8.61876 6.45701 9.70376C6.00701 10.7878 5.10001 11.4848 4.00001 11.7898C3.99601 11.9298 3.99601 12.0698 4.00001 12.2098ZM12 14.9998C11.2044 14.9998 10.4413 14.6837 9.87869 14.1211C9.31608 13.5585 9.00001 12.7954 9.00001 11.9998C9.00001 11.2041 9.31608 10.4411 9.87869 9.87844C10.4413 9.31583 11.2044 8.99976 12 8.99976C12.7957 8.99976 13.5587 9.31583 14.1213 9.87844C14.6839 10.4411 15 11.2041 15 11.9998C15 12.7954 14.6839 13.5585 14.1213 14.1211C13.5587 14.6837 12.7957 14.9998 12 14.9998ZM12 12.9998C12.2652 12.9998 12.5196 12.8944 12.7071 12.7069C12.8946 12.5193 13 12.265 13 11.9998C13 11.7345 12.8946 11.4802 12.7071 11.2927C12.5196 11.1051 12.2652 10.9998 12 10.9998C11.7348 10.9998 11.4804 11.1051 11.2929 11.2927C11.1054 11.4802 11 11.7345 11 11.9998C11 12.265 11.1054 12.5193 11.2929 12.7069C11.4804 12.8944 11.7348 12.9998 12 12.9998Z" fill="black"/>
</g>
<defs>
<clipPath id="clip0_574_1864">
<rect width="24" height="24" fill="white"/>
</clipPath>
</defs>
</svg>
