<svg width="143" height="144" viewBox="0 0 143 144" fill="none" xmlns="http://www.w3.org/2000/svg">
<g clip-path="url(#clip0_316_934)">
<path d="M84.8614 4.04562C98.0975 -1.12457 94.2174 11.3557 103.495 10.5591C117.623 9.32515 110.457 20.2122 119.532 22.0398C133.488 24.8357 123.459 33.3017 131.704 37.5972C144.252 44.1576 132.299 49.4683 138.964 55.9194C149.149 65.7911 136.21 67.525 140.778 75.5536C147.772 87.9089 134.88 85.8159 136.961 94.8911C140.246 108.683 128.325 103.154 127.871 112.37C127.089 126.365 117.248 117.993 114.181 126.615C113.321 129.021 112.898 131.036 110.473 132.582C105.905 135.518 101.039 130.895 97.0649 136.393C88.7102 147.905 85.2212 135.284 77.8522 140.985C66.6343 149.686 66.7908 136.581 58.1232 139.986C56.4022 140.657 51.067 143.453 47.3904 138.439L45.9197 136.409C44.4021 134.347 41.977 133.269 39.4894 133.488C25.2989 134.722 32.6053 123.835 23.4527 122.007C9.48127 119.211 19.557 110.777 11.2962 106.465C-1.25155 99.9207 10.686 94.5943 4.02099 88.1432C-6.21118 78.2402 6.79024 76.647 2.20611 68.509C-4.81873 56.2005 8.13576 58.1842 6.00797 49.1716C2.80064 35.3635 14.5974 40.893 15.1137 31.6929C15.8646 17.51 25.6744 26.2103 28.7878 17.4631C29.3667 15.823 30.7748 9.84061 36.9861 10.3873C39.4268 10.606 43.1817 11.387 45.904 7.68506C46.9366 6.24803 49.9562 0.906015 55.792 3.18652C57.9667 4.04562 61.4557 5.90439 65.1167 3.0928C76.3658 -5.65435 76.1937 7.41952 84.8614 4.04562Z" fill="url(#paint0_linear_316_934)"/>
<path d="M71.5001 137.502C107.731 137.502 137.102 108.179 137.102 72.0079C137.102 35.8364 107.731 6.51355 71.5001 6.51355C35.2693 6.51355 5.89844 35.8364 5.89844 72.0079C5.89844 108.179 35.2693 137.502 71.5001 137.502Z" fill="url(#paint1_linear_316_934)"/>
<path d="M71.5001 135.643C106.703 135.643 135.24 107.153 135.24 72.0078C135.24 36.8629 106.703 8.37231 71.5001 8.37231C36.2975 8.37231 7.76025 36.8629 7.76025 72.0078C7.76025 107.153 36.2975 135.643 71.5001 135.643Z" fill="url(#paint2_linear_316_934)"/>
<path d="M71.5001 128.224C102.598 128.224 127.808 103.055 127.808 72.0078C127.808 40.9605 102.598 15.7917 71.5001 15.7917C40.4019 15.7917 15.1919 40.9605 15.1919 72.0078C15.1919 103.055 40.4019 128.224 71.5001 128.224Z" fill="url(#paint3_linear_316_934)"/>
<path d="M37.8308 50.1711V49.3901H106.186V50.1711H37.8308Z" fill="url(#paint4_linear_316_934)"/>
<path d="M37.8308 86.0969V85.3159H106.186V86.0969H37.8308Z" fill="url(#paint5_linear_316_934)"/>
<path d="M39.8491 70.4146C40.5063 71.2581 40.8348 72.2265 40.8348 73.3199C40.8348 74.8819 40.2872 76.1315 39.192 77.0531C38.0968 77.9746 36.5636 78.4276 34.6079 78.4276H25.8621V59.6837H34.3106C36.2194 59.6837 37.7057 60.1211 38.7853 60.9958C39.8648 61.8705 40.3967 63.0576 40.3967 64.5415C40.3967 65.6505 40.0995 66.5565 39.5206 67.2906C38.9417 68.0248 38.1751 68.5246 37.2051 68.8057C38.3002 69.04 39.1764 69.5711 39.8491 70.4146ZM30.4306 67.2594H33.4345C34.1855 67.2594 34.7644 67.1032 35.1555 66.7595C35.5623 66.4315 35.75 65.9473 35.75 65.3069C35.75 64.6665 35.5466 64.1823 35.1555 63.8386C34.7487 63.495 34.1698 63.3232 33.4345 63.3232H30.4306V67.2594ZM35.5779 74.2102C36.0004 73.8666 36.2037 73.3668 36.2037 72.6951C36.2037 72.0235 35.9847 71.5236 35.5466 71.1487C35.1086 70.7739 34.514 70.5864 33.7474 70.5864H30.4306V74.7257H33.7943C34.561 74.7257 35.1555 74.5539 35.5779 74.2102Z" fill="#F2F2F2"/>
<path d="M47.4997 77.3811C46.029 76.5689 44.8556 75.413 43.9951 73.9447C43.1346 72.4765 42.6965 70.8207 42.6965 68.9932C42.6965 67.1657 43.1346 65.51 43.9951 64.0573C44.8556 62.6047 46.029 61.4644 47.4997 60.6366C48.9704 59.8087 50.5819 59.4026 52.3498 59.4026C54.1178 59.4026 55.7292 59.8087 57.1999 60.6366C58.6706 61.4644 59.8284 62.5891 60.6732 64.0573C61.5181 65.51 61.9405 67.1657 61.9405 68.9932C61.9405 70.8207 61.5181 72.4765 60.6576 73.9447C59.7971 75.413 58.6393 76.5533 57.1843 77.3811C55.7292 78.1933 54.1021 78.6151 52.3498 78.6151C50.5975 78.6151 48.9704 78.1933 47.4997 77.3811ZM55.9639 72.9451C56.8714 71.9454 57.3094 70.6333 57.3094 68.9932C57.3094 67.3375 56.8557 66.0098 55.9639 65.0258C55.0565 64.0417 53.8674 63.5419 52.3655 63.5419C50.8478 63.5419 49.6431 64.0261 48.7357 65.0101C47.8283 65.9942 47.3902 67.3219 47.3902 68.9932C47.3902 70.6489 47.8439 71.9766 48.7357 72.9607C49.6431 73.9447 50.8478 74.4446 52.3655 74.4446C53.8674 74.4446 55.0565 73.9447 55.9639 72.9451Z" fill="#F2F2F2"/>
<path d="M78.0242 59.6681V63.3232H73.0489V78.412H68.4804V63.3232H63.5051V59.6681H78.0242Z" fill="#F2F2F2"/>
<path d="M84.3449 77.3811C82.8742 76.5689 81.7008 75.413 80.8403 73.9447C79.9798 72.4765 79.5417 70.8207 79.5417 68.9932C79.5417 67.1657 79.9798 65.51 80.8403 64.0573C81.7008 62.6047 82.8742 61.4644 84.3449 60.6366C85.8156 59.8087 87.4271 59.4026 89.195 59.4026C90.963 59.4026 92.5745 59.8087 94.0451 60.6366C95.5158 61.4644 96.6736 62.5891 97.5184 64.0573C98.3633 65.51 98.7857 67.1657 98.7857 68.9932C98.7857 70.8207 98.3633 72.4765 97.5028 73.9447C96.6423 75.413 95.4845 76.5533 94.0295 77.3811C92.5745 78.1933 90.9473 78.6151 89.195 78.6151C87.4427 78.6151 85.8156 78.1933 84.3449 77.3811ZM92.7935 72.9451C93.7009 71.9454 94.139 70.6333 94.139 68.9932C94.139 67.3375 93.6853 66.0098 92.7935 65.0258C91.8861 64.0417 90.697 63.5419 89.195 63.5419C87.6774 63.5419 86.4727 64.0261 85.5653 65.0101C84.6578 65.9942 84.2198 67.3219 84.2198 68.9932C84.2198 70.6489 84.6735 71.9766 85.5653 72.9607C86.4727 73.9447 87.6774 74.4446 89.195 74.4446C90.697 74.4446 91.9017 73.9447 92.7935 72.9451Z" fill="#F2F2F2"/>
<path d="M112.851 78.412L109.018 72.6639L105.654 78.412H100.46L106.483 68.8838L100.335 59.6681H105.654L109.425 65.3381L112.742 59.6681H117.936L111.975 69.1181L118.186 78.412H112.851Z" fill="#F2F2F2"/>
<path d="M52.1777 34.5044L53.3042 36.8005L55.8544 37.1754L54.0082 38.9561L54.4463 41.4865L52.1777 40.2994L49.8934 41.4865L50.3315 38.9561L48.4854 37.1754L51.0356 36.8005L52.1777 34.5044Z" fill="url(#paint6_linear_316_934)"/>
<path d="M62.0969 34.5044L63.2234 36.8005L65.7736 37.1754L63.9274 38.9561L64.3655 41.4865L62.0969 40.2994L59.8126 41.4865L60.2507 38.9561L58.4045 37.1754L60.9548 36.8005L62.0969 34.5044Z" fill="url(#paint7_linear_316_934)"/>
<path d="M72.0163 34.5044L73.1428 36.8005L75.693 37.1754L73.8468 38.9561L74.2849 41.4865L72.0163 40.2994L69.7321 41.4865L70.1701 38.9561L68.324 37.1754L70.8742 36.8005L72.0163 34.5044Z" fill="url(#paint8_linear_316_934)"/>
<path d="M81.9355 34.5044L83.0776 36.8005L85.6122 37.1754L83.7817 38.9561L84.2041 41.4865L81.9355 40.2994L79.6512 41.4865L80.0893 38.9561L78.2588 37.1754L80.7934 36.8005L81.9355 34.5044Z" fill="url(#paint9_linear_316_934)"/>
<path d="M91.8547 34.5044L92.9968 36.8005L95.5314 37.1754L93.7008 38.9561L94.1233 41.4865L91.8547 40.2994L89.5704 41.4865L90.0085 38.9561L88.178 37.1754L90.7126 36.8005L91.8547 34.5044Z" fill="url(#paint10_linear_316_934)"/>
<path d="M52.1777 34.5044L53.3042 36.8005L55.8544 37.1754L54.0082 38.9561L54.4463 41.4865L52.1777 40.2994L49.8934 41.4865L50.3315 38.9561L48.4854 37.1754L51.0356 36.8005L52.1777 34.5044Z" fill="url(#paint11_linear_316_934)"/>
<path d="M62.0969 34.5044L63.2234 36.8005L65.7736 37.1754L63.9274 38.9561L64.3655 41.4865L62.0969 40.2994L59.8126 41.4865L60.2507 38.9561L58.4045 37.1754L60.9548 36.8005L62.0969 34.5044Z" fill="url(#paint12_linear_316_934)"/>
<path d="M72.0163 34.5044L73.1428 36.8005L75.693 37.1754L73.8468 38.9561L74.2849 41.4865L72.0163 40.2994L69.7321 41.4865L70.1701 38.9561L68.324 37.1754L70.8742 36.8005L72.0163 34.5044Z" fill="url(#paint13_linear_316_934)"/>
<path d="M81.9355 34.5044L83.0776 36.8005L85.6122 37.1754L83.7817 38.9561L84.2041 41.4865L81.9355 40.2994L79.6512 41.4865L80.0893 38.9561L78.2588 37.1754L80.7934 36.8005L81.9355 34.5044Z" fill="url(#paint14_linear_316_934)"/>
<path d="M91.8547 34.5044L92.9968 36.8005L95.5314 37.1754L93.7008 38.9561L94.1233 41.4865L91.8547 40.2994L89.5704 41.4865L90.0085 38.9561L88.178 37.1754L90.7126 36.8005L91.8547 34.5044Z" fill="url(#paint15_linear_316_934)"/>
<path d="M24.4069 92.22L23.7341 90.5331L30.274 87.9245L28.8346 86.1595L30.2114 85.6128L32.9024 88.6431L32.9806 88.8305L24.4069 92.22Z" fill="#F2F2F2"/>
<path d="M32.4642 99.0771C31.369 99.7332 30.399 100.014 29.5542 99.905C28.7093 99.7956 28.0209 99.3114 27.489 98.4523C26.9727 97.5932 26.8631 96.7654 27.1448 95.9688C27.4264 95.1721 28.1148 94.4536 29.163 93.7976L30.6181 92.9229C31.7132 92.2668 32.6833 91.9857 33.5281 92.095C34.373 92.2044 35.0614 92.6886 35.5777 93.5477C36.094 94.4068 36.2035 95.2346 35.9219 96.0312C35.6246 96.8279 34.9675 97.5464 33.9036 98.1868L32.4642 99.0771ZM33.1057 96.5467C33.7628 96.1562 34.1852 95.7813 34.373 95.4221C34.5607 95.0628 34.5451 94.7036 34.3104 94.3131C34.0914 93.9382 33.7785 93.7664 33.3873 93.7507C32.9962 93.7507 32.4955 93.9226 31.8853 94.2818L29.9766 95.4377C29.3351 95.8282 28.9127 96.2031 28.7093 96.5623C28.5059 96.9216 28.5216 97.2965 28.7562 97.687C28.9909 98.0618 29.3038 98.2493 29.7106 98.2493C30.1174 98.2337 30.6181 98.0462 31.2439 97.687L33.1057 96.5467Z" fill="#F2F2F2"/>
<path d="M37.377 105.028C36.4069 105.856 35.4995 106.278 34.639 106.309C33.7785 106.34 33.0275 105.981 32.3704 105.2C31.7133 104.435 31.4786 103.638 31.6351 102.81C31.7915 101.982 32.3391 101.155 33.2778 100.358L34.5608 99.2646C35.5464 98.4367 36.4539 97.9994 37.2987 97.9838C38.1436 97.9681 38.8946 98.3274 39.5517 99.0928C40.2088 99.8582 40.4435 100.655 40.287 101.483C40.1306 102.31 39.583 103.138 38.6599 103.935L37.377 105.028ZM37.6117 102.435C38.1905 101.936 38.5504 101.498 38.6755 101.123C38.8007 100.748 38.7225 100.374 38.4409 100.046C38.1592 99.7176 37.8307 99.5926 37.4396 99.6395C37.0484 99.702 36.5947 99.9519 36.0471 100.389L34.3417 101.842C33.7629 102.326 33.4187 102.763 33.2622 103.154C33.1214 103.544 33.184 103.919 33.4812 104.263C33.7785 104.607 34.1071 104.732 34.5138 104.653C34.905 104.575 35.39 104.31 35.9376 103.857L37.6117 102.435Z" fill="#F2F2F2"/>
<path d="M38.3001 110.089L37.9089 109.152L45.9351 106.403L46.3262 107.34L38.3001 110.089ZM40.7095 103.373C41.0693 102.935 41.4918 102.701 42.0081 102.654C42.5087 102.607 42.9937 102.779 43.4631 103.154C43.9325 103.529 44.1984 103.966 44.261 104.466C44.3236 104.966 44.1671 105.45 43.7916 105.903L43.51 106.262C43.1502 106.7 42.7278 106.95 42.2115 106.981C41.7108 107.012 41.2258 106.856 40.7721 106.481C40.3027 106.106 40.0367 105.669 39.9741 105.169C39.9116 104.669 40.0524 104.185 40.4279 103.732L40.7095 103.373ZM40.8659 110.152C41.2258 109.714 41.6482 109.464 42.1645 109.433C42.6652 109.402 43.1502 109.558 43.6039 109.933C44.0733 110.308 44.3392 110.745 44.4018 111.245C44.4644 111.745 44.3236 112.229 43.9325 112.698L43.6508 113.057C43.291 113.494 42.8686 113.729 42.3679 113.775C41.8673 113.822 41.3822 113.65 40.9129 113.276C40.4435 112.901 40.1775 112.448 40.115 111.948C40.0524 111.448 40.1932 110.964 40.5687 110.526L40.8659 110.152ZM41.3509 104.513C41.1945 104.716 41.1163 104.919 41.1319 105.122C41.1476 105.325 41.2414 105.512 41.4292 105.653C41.6169 105.794 41.8047 105.856 42.0081 105.825C42.2115 105.794 42.3992 105.669 42.5713 105.466L42.8686 105.106C43.025 104.903 43.1032 104.716 43.0876 104.497C43.072 104.294 42.9781 104.107 42.7903 103.95C42.6026 103.81 42.4148 103.747 42.2115 103.779C42.0081 103.81 41.8203 103.935 41.6326 104.138L41.3509 104.513ZM41.5074 111.307C41.3666 111.495 41.304 111.682 41.304 111.917C41.3197 112.135 41.4135 112.323 41.5856 112.463C41.9768 112.791 42.3679 112.729 42.7278 112.292L43.025 111.917C43.1815 111.714 43.2597 111.526 43.2441 111.307C43.2284 111.104 43.1345 110.917 42.9468 110.776C42.759 110.636 42.5713 110.573 42.3523 110.605C42.1332 110.636 41.9611 110.745 41.789 110.964L41.5074 111.307Z" fill="#F2F2F2"/>
<path d="M54.9939 119.367C54.5245 119.602 53.9456 119.711 53.2885 119.664C52.6314 119.617 51.943 119.446 51.2546 119.149C50.5192 118.836 49.956 118.399 49.5492 117.837C49.1424 117.274 48.9078 116.634 48.8765 115.9C48.8452 115.166 49.0016 114.385 49.3458 113.572L49.5962 112.995C49.956 112.151 50.4254 111.495 50.973 110.995C51.5206 110.495 52.1464 110.214 52.8191 110.12C53.4919 110.027 54.1959 110.136 54.9156 110.448C55.9169 110.886 56.5897 111.464 56.9496 112.182C57.3094 112.901 57.3407 113.744 57.0434 114.697L55.3537 113.963C55.4789 113.447 55.4632 113.026 55.3068 112.682C55.1503 112.338 54.8218 112.073 54.368 111.87C53.7735 111.62 53.2259 111.636 52.7253 111.948C52.2246 112.26 51.7865 112.854 51.3954 113.729L51.1607 114.26C50.7696 115.15 50.6601 115.884 50.8009 116.478C50.9417 117.071 51.3328 117.509 51.9899 117.79C52.647 118.071 53.1633 118.133 53.5701 117.977L54.1959 116.525L52.6157 115.837L53.179 114.557L56.4958 115.994L54.9939 119.367Z" fill="#F2F2F2"/>
<path d="M65.805 113.76L64.4908 119.664C64.2717 120.648 63.7867 121.351 63.0514 121.789C62.316 122.226 61.4086 122.32 60.3447 122.085C59.2964 121.851 58.5298 121.382 58.0292 120.695C57.5442 120.008 57.3877 119.18 57.5911 118.196L58.921 112.229L60.7671 112.635L59.4529 118.555C59.3277 119.149 59.3747 119.602 59.5937 119.93C59.8128 120.258 60.1726 120.476 60.6733 120.586C61.7059 120.82 62.363 120.383 62.6289 119.305L63.9588 113.338L65.805 113.76Z" fill="#F2F2F2"/>
<path d="M71.5311 121.304L68.2142 121.195L67.5258 123.069L65.5076 123.007L69.2312 113.932L70.9835 113.994L74.1283 123.288L72.11 123.225L71.5311 121.304ZM68.7775 119.68L71.0774 119.758L70.0291 116.29L68.7775 119.68Z" fill="#F2F2F2"/>
<path d="M78.8532 119.242L77.3669 119.477L77.8676 122.804L75.9901 123.085L74.5977 114.01L77.9771 113.494C79.0566 113.338 79.9171 113.447 80.5742 113.838C81.2314 114.228 81.6225 114.853 81.7633 115.728C81.8572 116.353 81.8102 116.884 81.5912 117.337C81.3878 117.79 81.028 118.18 80.5273 118.508L83.0619 121.913L83.0775 122.007L81.0593 122.32L78.8532 119.242ZM77.1322 117.962L78.6498 117.727C79.1192 117.649 79.4634 117.477 79.6824 117.196C79.9015 116.915 79.9797 116.571 79.9171 116.15C79.8546 115.728 79.6824 115.4 79.4008 115.197C79.1192 114.994 78.7281 114.916 78.2274 114.994L76.7254 115.228L77.1322 117.962Z" fill="#F2F2F2"/>
<path d="M89.414 117.946L86.2849 119.055L86.3162 121.054L84.4075 121.726L84.5796 111.932L86.238 111.354L92.5431 118.883L90.65 119.555L89.414 117.946ZM86.2536 117.431L88.4284 116.665L86.1911 113.807L86.2536 117.431Z" fill="#F2F2F2"/>
<path d="M100.741 114.166L99.1143 115.134L92.8561 111.807L95.9382 117.009L94.3111 117.977L89.6174 110.074L91.2446 109.105L97.5184 112.432L94.4206 107.215L96.0477 106.247L100.741 114.166Z" fill="#F2F2F2"/>
<path d="M102.932 102.357L100.804 104.2L105.842 109.964L104.418 111.214L99.3803 105.45L97.2838 107.278L96.2825 106.122L101.931 101.201L102.932 102.357Z" fill="#F2F2F2"/>
<path d="M109.753 99.8269L107.438 102.638L109.346 104.2L112.053 100.905L113.226 101.873L109.315 106.637L102.212 100.811L106.123 96.0625L107.312 97.0309L104.606 100.311L106.295 101.701L108.611 98.8897L109.753 99.8269Z" fill="#F2F2F2"/>
<path d="M113.711 93.407L111.881 96.5467L114.009 97.7806L116.168 94.0943L117.482 94.8597L114.369 100.17L106.421 95.5314L109.534 90.2206L110.864 91.0016L108.721 94.6723L110.614 95.7813L112.444 92.6417L113.711 93.407Z" fill="#F2F2F2"/>
<path d="M118.374 92.9697L109.753 89.7677L110.739 87.1123C111.02 86.3625 111.443 85.7377 112.006 85.2691C112.569 84.8005 113.226 84.5194 113.977 84.41C114.728 84.3163 115.511 84.41 116.309 84.7068L116.7 84.8474C117.498 85.1442 118.155 85.5815 118.655 86.1282C119.156 86.6749 119.469 87.331 119.594 88.0651C119.719 88.7992 119.641 89.5334 119.36 90.2831L118.374 92.9697ZM111.85 88.5181L117.607 90.658L117.92 89.7989C118.186 89.1116 118.155 88.4868 117.826 87.9557C117.513 87.4247 116.934 86.9873 116.09 86.6749L115.636 86.5031C114.76 86.1751 114.024 86.1126 113.446 86.3C112.851 86.4875 112.429 86.9405 112.178 87.6433L111.85 88.5181Z" fill="#F2F2F2"/>
</g>
<defs>
<linearGradient id="paint0_linear_316_934" x1="9.06831e-05" y1="72.0035" x2="142.992" y2="72.0035" gradientUnits="userSpaceOnUse">
<stop stop-color="#58595B"/>
<stop offset="1" stop-color="#231F20"/>
</linearGradient>
<linearGradient id="paint1_linear_316_934" x1="-86.5872" y1="72.0035" x2="127.532" y2="72.0035" gradientUnits="userSpaceOnUse">
<stop stop-color="#D39B39"/>
<stop offset="0.1947" stop-color="#F2C86C"/>
<stop offset="0.2488" stop-color="#E1B254"/>
<stop offset="0.3253" stop-color="#CE9839"/>
<stop offset="0.4029" stop-color="#C08625"/>
<stop offset="0.4816" stop-color="#B87C1A"/>
<stop offset="0.5632" stop-color="#B57816"/>
<stop offset="0.6053" stop-color="#B57816"/>
<stop offset="0.8526" stop-color="#FBE18A"/>
<stop offset="1" stop-color="#D39B39"/>
</linearGradient>
<linearGradient id="paint2_linear_316_934" x1="7.75759" y1="72.0036" x2="135.251" y2="72.0036" gradientUnits="userSpaceOnUse">
<stop stop-color="#D39B39"/>
<stop offset="0.1947" stop-color="#F2C86C"/>
<stop offset="0.2488" stop-color="#E1B254"/>
<stop offset="0.3253" stop-color="#CE9839"/>
<stop offset="0.4029" stop-color="#C08625"/>
<stop offset="0.4816" stop-color="#B87C1A"/>
<stop offset="0.5632" stop-color="#B57816"/>
<stop offset="0.6053" stop-color="#B57816"/>
<stop offset="0.8526" stop-color="#FBE18A"/>
<stop offset="1" stop-color="#D39B39"/>
</linearGradient>
<linearGradient id="paint3_linear_316_934" x1="15.1999" y1="72.0034" x2="127.808" y2="72.0034" gradientUnits="userSpaceOnUse">
<stop stop-color="#58595B"/>
<stop offset="1" stop-color="#231F20"/>
</linearGradient>
<linearGradient id="paint4_linear_316_934" x1="72.0133" y1="0.885488" x2="72.0133" y2="86.0582" gradientUnits="userSpaceOnUse">
<stop offset="0.1082" stop-color="#8C581C"/>
<stop offset="0.2399" stop-color="#B57816"/>
<stop offset="0.2592" stop-color="#BA7F1E"/>
<stop offset="0.3837" stop-color="#D6A94C"/>
<stop offset="0.4942" stop-color="#EAC86E"/>
<stop offset="0.5854" stop-color="#F7DA83"/>
<stop offset="0.6461" stop-color="#FBE18A"/>
<stop offset="0.7567" stop-color="#FBE18A"/>
<stop offset="0.8041" stop-color="#F7DA82"/>
<stop offset="0.8797" stop-color="#EBC86A"/>
<stop offset="0.9734" stop-color="#D9AA45"/>
<stop offset="1" stop-color="#D3A039"/>
</linearGradient>
<linearGradient id="paint5_linear_316_934" x1="72.0133" y1="36.8111" x2="72.0133" y2="121.984" gradientUnits="userSpaceOnUse">
<stop offset="0.1082" stop-color="#8C581C"/>
<stop offset="0.2399" stop-color="#B57816"/>
<stop offset="0.2592" stop-color="#BA7F1E"/>
<stop offset="0.3837" stop-color="#D6A94C"/>
<stop offset="0.4942" stop-color="#EAC86E"/>
<stop offset="0.5854" stop-color="#F7DA83"/>
<stop offset="0.6461" stop-color="#FBE18A"/>
<stop offset="0.7567" stop-color="#FBE18A"/>
<stop offset="0.8041" stop-color="#F7DA82"/>
<stop offset="0.8797" stop-color="#EBC86A"/>
<stop offset="0.9734" stop-color="#D9AA45"/>
<stop offset="1" stop-color="#D3A039"/>
</linearGradient>
<linearGradient id="paint6_linear_316_934" x1="17.3124" y1="4.08524" x2="77.4719" y2="63.9035" gradientUnits="userSpaceOnUse">
<stop stop-color="#D2AB67"/>
<stop offset="0.2" stop-color="#BD7729"/>
<stop offset="0.59" stop-color="#FFE986"/>
<stop offset="0.78" stop-color="#C48127"/>
<stop offset="1" stop-color="#FDE981"/>
</linearGradient>
<linearGradient id="paint7_linear_316_934" x1="27.2329" y1="4.08477" x2="87.3933" y2="63.904" gradientUnits="userSpaceOnUse">
<stop stop-color="#D2AB67"/>
<stop offset="0.2" stop-color="#BD7729"/>
<stop offset="0.59" stop-color="#FFE986"/>
<stop offset="0.78" stop-color="#C48127"/>
<stop offset="1" stop-color="#FDE981"/>
</linearGradient>
<linearGradient id="paint8_linear_316_934" x1="37.1546" y1="4.0854" x2="97.3141" y2="63.9036" gradientUnits="userSpaceOnUse">
<stop stop-color="#D2AB67"/>
<stop offset="0.2" stop-color="#BD7729"/>
<stop offset="0.59" stop-color="#FFE986"/>
<stop offset="0.78" stop-color="#C48127"/>
<stop offset="1" stop-color="#FDE981"/>
</linearGradient>
<linearGradient id="paint9_linear_316_934" x1="47.0756" y1="4.08524" x2="107.235" y2="63.9035" gradientUnits="userSpaceOnUse">
<stop stop-color="#D2AB67"/>
<stop offset="0.2" stop-color="#BD7729"/>
<stop offset="0.59" stop-color="#FFE986"/>
<stop offset="0.78" stop-color="#C48127"/>
<stop offset="1" stop-color="#FDE981"/>
</linearGradient>
<linearGradient id="paint10_linear_316_934" x1="56.996" y1="4.08477" x2="117.156" y2="63.904" gradientUnits="userSpaceOnUse">
<stop stop-color="#D2AB67"/>
<stop offset="0.2" stop-color="#BD7729"/>
<stop offset="0.59" stop-color="#FFE986"/>
<stop offset="0.78" stop-color="#C48127"/>
<stop offset="1" stop-color="#FDE981"/>
</linearGradient>
<linearGradient id="paint11_linear_316_934" x1="72.0132" y1="-42.4962" x2="72.0132" y2="90.8601" gradientUnits="userSpaceOnUse">
<stop offset="0.1082" stop-color="#8C581C"/>
<stop offset="0.2399" stop-color="#B57816"/>
<stop offset="0.2592" stop-color="#BA7F1E"/>
<stop offset="0.3837" stop-color="#D6A94C"/>
<stop offset="0.4942" stop-color="#EAC86E"/>
<stop offset="0.5854" stop-color="#F7DA83"/>
<stop offset="0.6461" stop-color="#FBE18A"/>
<stop offset="0.7567" stop-color="#FBE18A"/>
<stop offset="0.8041" stop-color="#F7DA82"/>
<stop offset="0.8797" stop-color="#EBC86A"/>
<stop offset="0.9734" stop-color="#D9AA45"/>
<stop offset="1" stop-color="#D3A039"/>
</linearGradient>
<linearGradient id="paint12_linear_316_934" x1="72.0132" y1="-42.4962" x2="72.0132" y2="90.8601" gradientUnits="userSpaceOnUse">
<stop offset="0.1082" stop-color="#8C581C"/>
<stop offset="0.2399" stop-color="#B57816"/>
<stop offset="0.2592" stop-color="#BA7F1E"/>
<stop offset="0.3837" stop-color="#D6A94C"/>
<stop offset="0.4942" stop-color="#EAC86E"/>
<stop offset="0.5854" stop-color="#F7DA83"/>
<stop offset="0.6461" stop-color="#FBE18A"/>
<stop offset="0.7567" stop-color="#FBE18A"/>
<stop offset="0.8041" stop-color="#F7DA82"/>
<stop offset="0.8797" stop-color="#EBC86A"/>
<stop offset="0.9734" stop-color="#D9AA45"/>
<stop offset="1" stop-color="#D3A039"/>
</linearGradient>
<linearGradient id="paint13_linear_316_934" x1="72.0133" y1="-42.4962" x2="72.0133" y2="90.8601" gradientUnits="userSpaceOnUse">
<stop offset="0.1082" stop-color="#8C581C"/>
<stop offset="0.2399" stop-color="#B57816"/>
<stop offset="0.2592" stop-color="#BA7F1E"/>
<stop offset="0.3837" stop-color="#D6A94C"/>
<stop offset="0.4942" stop-color="#EAC86E"/>
<stop offset="0.5854" stop-color="#F7DA83"/>
<stop offset="0.6461" stop-color="#FBE18A"/>
<stop offset="0.7567" stop-color="#FBE18A"/>
<stop offset="0.8041" stop-color="#F7DA82"/>
<stop offset="0.8797" stop-color="#EBC86A"/>
<stop offset="0.9734" stop-color="#D9AA45"/>
<stop offset="1" stop-color="#D3A039"/>
</linearGradient>
<linearGradient id="paint14_linear_316_934" x1="72.0133" y1="-42.4962" x2="72.0133" y2="90.8601" gradientUnits="userSpaceOnUse">
<stop offset="0.1082" stop-color="#8C581C"/>
<stop offset="0.2399" stop-color="#B57816"/>
<stop offset="0.2592" stop-color="#BA7F1E"/>
<stop offset="0.3837" stop-color="#D6A94C"/>
<stop offset="0.4942" stop-color="#EAC86E"/>
<stop offset="0.5854" stop-color="#F7DA83"/>
<stop offset="0.6461" stop-color="#FBE18A"/>
<stop offset="0.7567" stop-color="#FBE18A"/>
<stop offset="0.8041" stop-color="#F7DA82"/>
<stop offset="0.8797" stop-color="#EBC86A"/>
<stop offset="0.9734" stop-color="#D9AA45"/>
<stop offset="1" stop-color="#D3A039"/>
</linearGradient>
<linearGradient id="paint15_linear_316_934" x1="72.0132" y1="-42.4962" x2="72.0132" y2="90.8601" gradientUnits="userSpaceOnUse">
<stop offset="0.1082" stop-color="#8C581C"/>
<stop offset="0.2399" stop-color="#B57816"/>
<stop offset="0.2592" stop-color="#BA7F1E"/>
<stop offset="0.3837" stop-color="#D6A94C"/>
<stop offset="0.4942" stop-color="#EAC86E"/>
<stop offset="0.5854" stop-color="#F7DA83"/>
<stop offset="0.6461" stop-color="#FBE18A"/>
<stop offset="0.7567" stop-color="#FBE18A"/>
<stop offset="0.8041" stop-color="#F7DA82"/>
<stop offset="0.8797" stop-color="#EBC86A"/>
<stop offset="0.9734" stop-color="#D9AA45"/>
<stop offset="1" stop-color="#D3A039"/>
</linearGradient>
<clipPath id="clip0_316_934">
<rect width="143" height="144" fill="white"/>
</clipPath>
</defs>
</svg>
