<svg width="384" height="80" viewBox="0 0 384 80" fill="none" xmlns="http://www.w3.org/2000/svg">
<path d="M361.865 79.2208L345.954 55.2987L331.934 79.2208H310.349L335.384 39.499L309.792 1.1123H331.934L347.623 24.7006L361.42 1.1123H383.005L358.193 40.5004L384.007 79.2208H361.865Z" fill="white"/>
<path d="M263.492 80C256.149 80 249.398 78.2939 243.242 74.8818C237.159 71.4696 232.301 66.7223 228.666 60.6398C225.105 54.4831 223.325 47.5846 223.325 39.9444C223.325 32.3041 225.105 25.4427 228.666 19.3602C232.301 13.2777 237.159 8.53037 243.242 5.11822C249.398 1.70607 256.149 0 263.492 0C270.836 0 277.549 1.70607 283.631 5.11822C289.788 8.53037 294.609 13.2777 298.096 19.3602C301.656 25.4427 303.436 32.3041 303.436 39.9444C303.436 47.5846 301.656 54.4831 298.096 60.6398C294.535 66.7223 289.714 71.4696 283.631 74.8818C277.549 78.2939 270.836 80 263.492 80ZM263.492 62.6426C269.723 62.6426 274.693 60.5656 278.402 56.4117C282.185 52.2578 284.076 46.7687 284.076 39.9444C284.076 33.0459 282.185 27.5568 278.402 23.477C274.693 19.3231 269.723 17.2462 263.492 17.2462C257.187 17.2462 252.143 19.286 248.36 23.3658C244.651 27.4455 242.797 32.9717 242.797 39.9444C242.797 46.8428 244.651 52.369 248.36 56.523C252.143 60.6027 257.187 62.6426 263.492 62.6426Z" fill="white"/>
<path d="M217.002 32.8604V48.1037H196.307V78.5164H177.28V48.1037H156.585V32.8604H217.002Z" fill="white"/>
<path d="M156.586 47.6084L156.586 32.365L177.282 32.365L177.282 1.95238L196.308 1.95238L196.308 32.365L217.003 32.365L217.003 47.6084L156.586 47.6084Z" fill="white"/>
<path d="M110.284 80C102.941 80 96.1907 78.2939 90.034 74.8818C83.9515 71.4696 79.0929 66.7223 75.4582 60.6398C71.8977 54.4831 70.1174 47.5846 70.1174 39.9444C70.1174 32.3041 71.8977 25.4427 75.4582 19.3602C79.0929 13.2777 83.9515 8.53037 90.034 5.11822C96.1907 1.70607 102.941 0 110.284 0C117.628 0 124.341 1.70607 130.423 5.11822C136.58 8.53037 141.402 13.2777 144.888 19.3602C148.448 25.4427 150.229 32.3041 150.229 39.9444C150.229 47.5846 148.448 54.4831 144.888 60.6398C141.327 66.7223 136.506 71.4696 130.423 74.8818C124.341 78.2939 117.628 80 110.284 80ZM110.284 62.6426C116.515 62.6426 121.485 60.5656 125.194 56.4117C128.977 52.2578 130.868 46.7687 130.868 39.9444C130.868 33.0459 128.977 27.5568 125.194 23.477C121.485 19.3231 116.515 17.2462 110.284 17.2462C103.979 17.2462 98.9352 19.286 95.1522 23.3658C91.4434 27.4455 89.5889 32.9717 89.5889 39.9444C89.5889 46.8428 91.4434 52.369 95.1522 56.523C98.9352 60.6027 103.979 62.6426 110.284 62.6426Z" fill="white"/>
<path d="M47.2879 39.1652C51.8127 40.1295 55.4474 42.3919 58.1919 45.9524C60.9365 49.4387 62.3088 53.4442 62.3088 57.9691C62.3088 64.4966 60.0093 69.689 55.4103 73.5462C50.8855 77.3293 44.5434 79.2208 36.3839 79.2208H0V1.1123H35.1599C43.0969 1.1123 49.2907 2.92964 53.7413 6.56432C58.2661 10.199 60.5285 15.1318 60.5285 21.3627C60.5285 25.9616 59.3046 29.7818 56.8567 32.823C54.4831 35.8643 51.2935 37.9783 47.2879 39.1652ZM19.0264 32.7118H31.4882C34.6036 32.7118 36.9773 32.0442 38.6092 30.709C40.3153 29.2996 41.1683 27.2597 41.1683 24.5894C41.1683 21.919 40.3153 19.8791 38.6092 18.4697C36.9773 17.0604 34.6036 16.3557 31.4882 16.3557H19.0264V32.7118ZM33.0459 63.8661C36.2355 63.8661 38.6834 63.1615 40.3894 61.7521C42.1697 60.2685 43.0598 58.1545 43.0598 55.4099C43.0598 52.6654 42.1326 50.5143 40.2782 48.9565C38.4979 47.3988 36.013 46.62 32.8234 46.62H19.0264V63.8661H33.0459Z" fill="white"/>
</svg>
